<svg xmlns="http://www.w3.org/2000/svg" width="357.983" height="118.663">
    <defs>
        <style>
            .cls-1{fill:#fff}.cls-2{fill:#a8a8a8}.cls-3{fill:#db2d27;stroke-width:.283px}.cls-3,.cls-6{stroke:#151616;stroke-miterlimit:10}.cls-3,.cls-5,.cls-6{fill-rule:evenodd}.cls-6{fill:#00a557}.cls-5{fill:#151616}.cls-6{stroke-width:.567px}
        </style>
    </defs>
    <g id="Group_2609" data-name="Group 2609" transform="translate(35.158 -147.7)">
        <circle id="Ellipse_418" data-name="Ellipse 418" class="cls-1" cx="57.511" cy="57.511" r="57.511" transform="translate(206.322 149.777)"/>
        <g id="Group_2606" data-name="Group 2606" transform="translate(-32.478 182.695)">
            <path id="Path_21710" data-name="Path 21710" class="cls-1" d="M59.849 506.193H57.51a4.138 4.138 0 0 1-1.34 3.27 5.245 5.245 0 0 1-3.475 1.045H47a9.1 9.1 0 0 1-2.793-.454 5.416 5.416 0 0 1-2.294-1.385 3.115 3.115 0 0 1-.913-2.295 10.494 10.494 0 0 1 .182-1.612c.114-.681.25-1.294.386-1.862l2.566.341c-.091.477-.182 1-.25 1.567s-.114.954-.114 1.2a1.976 1.976 0 0 0 .409 1.2 2.636 2.636 0 0 0 1.113.84 4.15 4.15 0 0 0 1.658.318h5.65a2.344 2.344 0 0 0 1.635-.477 2.277 2.277 0 0 0 .522-1.7h-.068a7.555 7.555 0 0 1-1.68-.159 5.069 5.069 0 0 1-1.522-.636l1.181-1.794a2.646 2.646 0 0 0 .931.409 8.6 8.6 0 0 0 1.272.068h5v2.112zm-13.012 5.541h2.112v2.157h-2.113zm3.111 0h2.112v2.157h-2.113z" transform="translate(-40.999 -491.137)"/>
            <path id="Path_21711" data-name="Path 21711" class="cls-1" d="M122.2 508.1h5.11v2.112h-5.11z" transform="translate(-103.759 -495.156)"/>
            <path id="Path_21712" data-name="Path 21712" class="cls-1" d="M150.491 466.061v8.675H144.7v-2.112h3.043v-6.563zM147.9 462.2h2.521v2.248H147.9z" transform="translate(-121.15 -459.679)"/>
            <path id="Path_21713" data-name="Path 21713" class="cls-1" d="M186.8 478.176a4.679 4.679 0 0 1 1.93 2.044 7.513 7.513 0 0 1 .681 3.361v2.975H180.1v-2.112h6.563v-.613a4.419 4.419 0 0 0-1-3.225 3.346 3.346 0 0 0-2.384-.954h-2.067l-.2-1.817c.431-.091.908-.159 1.453-.227a12.306 12.306 0 0 1 1.476-.114 5.347 5.347 0 0 1 2.859.682z" transform="translate(-148.511 -471.499)"/>
            <path id="Path_21714" data-name="Path 21714" class="cls-1" d="M227.4 492.1v-2.09l.7.045a1.275 1.275 0 0 0 1.113-.5 2.28 2.28 0 0 0 .363-1.385v-8.97h2.748v8.561a5.414 5.414 0 0 1-.84 3.247 2.988 2.988 0 0 1-2.566 1.158c-.201.001-.7-.022-1.518-.066z" transform="translate(-185.069 -472.819)"/>
            <path id="Path_21715" data-name="Path 21715" class="cls-1" d="M268.832 454.007v12.149H258v-2.112h2.589v-7.676h2.748v7.676h2.771v-10.015h2.725zm-4.61.522-4.474.749-.227-.818.931-.2a1.7 1.7 0 0 1-.795-1.408 1.547 1.547 0 0 1 .613-1.226 2.309 2.309 0 0 1 1.544-.522 3.448 3.448 0 0 1 1.59.409l-.273 1.045a1.186 1.186 0 0 0-.341-.159 1.823 1.823 0 0 0-.522-.068 1.211 1.211 0 0 0-.772.25.794.794 0 0 0-.3.613.848.848 0 0 0 .5.772l2.226-.5z" transform="translate(-208.72 -451.1)"/>
            <path id="Path_21716" data-name="Path 21716" class="cls-1" d="M319.2 463.9h2.748v12.15H319.2z" transform="translate(-256.022 -460.993)"/>
            <path id="Path_21717" data-name="Path 21717" class="cls-1" d="M381.649 506.193h-2.339a4.138 4.138 0 0 1-1.34 3.27 5.245 5.245 0 0 1-3.475 1.045h-5.7a9.1 9.1 0 0 1-2.793-.454 5.416 5.416 0 0 1-2.294-1.385 3.115 3.115 0 0 1-.908-2.294 10.5 10.5 0 0 1 .182-1.612c.114-.681.25-1.294.386-1.862l2.566.341c-.091.477-.182 1-.25 1.567s-.114.954-.114 1.2a1.976 1.976 0 0 0 .409 1.2 2.636 2.636 0 0 0 1.113.84 4.15 4.15 0 0 0 1.658.318h5.65a2.344 2.344 0 0 0 1.635-.477 2.277 2.277 0 0 0 .522-1.7h-.091a7.555 7.555 0 0 1-1.68-.159 5.068 5.068 0 0 1-1.521-.636l1.181-1.794a2.646 2.646 0 0 0 .931.409 8.6 8.6 0 0 0 1.272.068h5v2.112zm-13.012 5.541h2.112v2.157h-2.112zm3.111 0h2.112v2.157h-2.112z" transform="translate(-289.721 -491.137)"/>
            <path id="Path_21718" data-name="Path 21718" class="cls-1" d="M444 508.1h5.11v2.112H444z" transform="translate(-352.481 -495.156)"/>
            <path id="Path_21719" data-name="Path 21719" class="cls-1" d="M475.457 485.763v2.112H466.6v-2.112h3.043V479.2h2.748v6.563zm-5.723 3.5h2.521v2.248h-2.521z" transform="translate(-369.949 -472.819)"/>
            <path id="Path_21720" data-name="Path 21720" class="cls-1" d="M522.146 474.015v2.112H505.5v-2.112h1.726V464h2.748v6.245a16.49 16.49 0 0 1 1.658-1.567 6.889 6.889 0 0 1 1.749-1 6.51 6.51 0 0 1 2.316-.386 4.463 4.463 0 0 1 3.656 1.34 4.831 4.831 0 0 1 1.067 3.157v2.248h1.726zm-9.538-3.679a8.946 8.946 0 0 0-1.885 2.067 3.914 3.914 0 0 0-.727 1.453v.159h7.721v-1.794a3.066 3.066 0 0 0-.681-2.021 2.346 2.346 0 0 0-1.908-.818 3.8 3.8 0 0 0-2.52.954z" transform="translate(-400.015 -461.07)"/>
            <path id="Path_21721" data-name="Path 21721" class="cls-1" d="M584.069 463.9v12.15H578.8v-2.112h2.521v-10.015h2.748z" transform="translate(-456.669 -460.993)"/>
            <path id="Path_21722" data-name="Path 21722" class="cls-1" d="M616.4 463.9h2.748v12.15H616.4z" transform="translate(-485.731 -460.993)"/>
            <path id="Path_21723" data-name="Path 21723" class="cls-1" d="M684.376 485.608v2.112h-6.336a4.818 4.818 0 0 1-1.294-.182 4.3 4.3 0 0 1-1.022-.454 3.185 3.185 0 0 1-2.044.636h-1.88v.7a2.789 2.789 0 0 1-.613 1.68 4.525 4.525 0 0 1-1.953 1.363 8.849 8.849 0 0 1-3.338.545 7.969 7.969 0 0 1-3.52-.659 3.936 3.936 0 0 1-1.771-1.567 3.987 3.987 0 0 1-.5-1.817 29.013 29.013 0 0 1 .908-5.087l2.587.122a30.978 30.978 0 0 0-.84 4.61 2.065 2.065 0 0 0 .318 1.045 2.5 2.5 0 0 0 1.022.886 4.165 4.165 0 0 0 1.817.363 4.43 4.43 0 0 0 1.726-.3 2.525 2.525 0 0 0 1.09-.795 1.718 1.718 0 0 0 .363-1.045v-7.857h2.748v5.677h.931a1.5 1.5 0 0 0 1.2-.522 2.206 2.206 0 0 0 .409-1.363v-3.792h2.748v3.793a5.462 5.462 0 0 1-.2 1.567 1.556 1.556 0 0 0 .477.227 1.913 1.913 0 0 0 .613.091h1.544V483.2c0-.749-.023-1.363-.045-1.885s-.091-1.249-.182-2.226l2.385-.091c.159.749.272 1.5.409 2.248a13.5 13.5 0 0 1 .182 1.612v2.7h2.066z" transform="translate(-519.507 -472.664)"/>
            <path id="Path_21724" data-name="Path 21724" class="cls-1" d="M767 508.1h5.11v2.112H767z" transform="translate(-602.131 -495.156)"/>
            <path id="Path_21725" data-name="Path 21725" class="cls-1" d="M796.9 474.015v2.112h-7.4v-2.112h2.521V464h2.748v10.015z" transform="translate(-619.521 -461.07)"/>
            <path id="Path_21726" data-name="Path 21726" class="cls-1" d="M834.758 485.3v2.112H822.2V485.3h7.721v-3.27a1.5 1.5 0 0 0-.386-1.113 1.8 1.8 0 0 0-1.294-.363c-1.249.045-2.339.068-3.27.113l-1.045.045-.091-1.544a24.062 24.062 0 0 1 2.589-.409 23 23 0 0 1 2.566-.159 4.594 4.594 0 0 1 2.793.681 2.577 2.577 0 0 1 .886 2.18v3.861h2.089zm-7.517 3.5h2.521v2.248h-2.521z" transform="translate(-644.795 -472.355)"/>
            <path id="Path_21727" data-name="Path 21727" class="cls-1" d="M892.524 485.222v2.112h-1.135a1.233 1.233 0 0 1-1.113-.749v.749H877.4v-2.112h3.2a10.736 10.736 0 0 1-.3-2.2 9.542 9.542 0 0 1 .227-2.044 12.907 12.907 0 0 1 .522-1.885 8.415 8.415 0 0 1 1.635-.409 15.51 15.51 0 0 1 2.407-.182 8.191 8.191 0 0 1 3.247.522 2.9 2.9 0 0 1 1.544 1.476 6.447 6.447 0 0 1 .409 2.5v1.476a1.233 1.233 0 0 0 1.113.749zm-9.447-1c.068.409.136.749.2 1h4.269v-2.271a2.432 2.432 0 0 0-.568-1.794 3.036 3.036 0 0 0-2.157-.568 8.674 8.674 0 0 0-1.544.136 11.538 11.538 0 0 0-.3 2.294 7.331 7.331 0 0 0 .1 1.204z" transform="translate(-687.46 -472.278)"/>
            <path id="Path_21728" data-name="Path 21728" class="cls-1" d="M949.246 463.9v12.15H944v-2.112h2.5v-10.015h2.748z" transform="translate(-738.935 -460.993)"/>
            <path id="Path_21729" data-name="Path 21729" class="cls-1" d="M981.5 463.9h2.748v12.15H981.5z" transform="translate(-767.919 -460.993)"/>
        </g>
        <g id="Group_2607" data-name="Group 2607" transform="translate(-35.157 209.946)">
            <path id="Path_21730" data-name="Path 21730" class="cls-2" d="M39.987 592.933v2.112h-6.132a7.912 7.912 0 0 1-2.7-.363 2.631 2.631 0 0 1-1.476-1.317 8.276 8.276 0 0 1-.023-5.473 2.557 2.557 0 0 1 1.453-1.294 8.462 8.462 0 0 1 2.816-.363q.988 0 2.316.068a17.189 17.189 0 0 1 1.908.159v6.495h1.839zm-8.2-.886a1.382 1.382 0 0 0 .772.7 4.053 4.053 0 0 0 1.431.182h1.862v-4.519a15.416 15.416 0 0 0-1.817-.091 4.888 4.888 0 0 0-1.476.182 1.317 1.317 0 0 0-.772.659 3.142 3.142 0 0 0-.25 1.385 3.305 3.305 0 0 0 .252 1.502zm.136-9.447h1.794v2.157h-1.792zm2.634 0h1.794v2.157h-1.792z" transform="translate(-29.2 -579.988)"/>
            <path id="Path_21731" data-name="Path 21731" class="cls-2" d="M76.7 628.1h4.337v2.112H76.7z" transform="translate(-65.913 -615.156)"/>
            <path id="Path_21732" data-name="Path 21732" class="cls-2" d="M103.294 605.763v2.112H95.8v-2.112h2.589V599.2h2.316v6.563zm-6 3.5h1.794v2.157H97.3zm2.634 0h1.794v2.157h-1.789z" transform="translate(-80.676 -592.819)"/>
            <path id="Path_21733" data-name="Path 21733" class="cls-2" d="M141.685 605.222v2.112h-.954a.814.814 0 0 1-.545-.2 1.2 1.2 0 0 1-.386-.545v.749h-10.9v-2.112h2.7a12.1 12.1 0 0 1-.25-2.2 13.359 13.359 0 0 1 .182-2.044 18.318 18.318 0 0 1 .431-1.885 6.5 6.5 0 0 1 1.385-.409 11.215 11.215 0 0 1 2.044-.182 5.962 5.962 0 0 1 2.748.522 2.653 2.653 0 0 1 1.294 1.476 7.614 7.614 0 0 1 .341 2.5v1.476a1.2 1.2 0 0 0 .386.545.906.906 0 0 0 .545.2zm-8.016-1c.045.409.114.749.159 1h3.633v-2.271a2.778 2.778 0 0 0-.477-1.794 2.313 2.313 0 0 0-1.839-.568 6.479 6.479 0 0 0-1.317.136 13.016 13.016 0 0 0-.25 2.294c.022.386.046.795.091 1.204z" transform="translate(-106.259 -592.278)"/>
            <path id="Path_21734" data-name="Path 21734" class="cls-2" d="M198.971 580.734a15.954 15.954 0 0 1 .136 1.612v4.814h-3.565a3.429 3.429 0 0 1-1.09-.182 3.061 3.061 0 0 1-.863-.454 2.422 2.422 0 0 1-1.726.636H185.3v-2.112h2.657v-5.677h2.316v5.677h.795a1.21 1.21 0 0 0 1.022-.522 2.53 2.53 0 0 0 .363-1.363v-3.815h2.316v3.792a6.457 6.457 0 0 1-.182 1.567 1.74 1.74 0 0 0 .409.227 1.331 1.331 0 0 0 .522.091h1.294v-2.385a42.888 42.888 0 0 0-.204-4.111l2.021-.091.342 2.296zm-7.585-5.927h1.794v2.093h-1.794zm1.385-2.407h1.658v1.953h-1.658zm1.249 2.407h1.794v2.093h-1.794z" transform="translate(-149.851 -572.105)"/>
            <path id="Path_21735" data-name="Path 21735" class="cls-2" d="M260.82 594.015v2.112h-4.02V584h2.316v10.015z" transform="translate(-205.114 -581.07)"/>
            <path id="Path_21736" data-name="Path 21736" class="cls-2" d="M289.088 600.971v2.112H274.6v-2.112h1.817v-.341a3.649 3.649 0 0 1 .454-1.749 3.63 3.63 0 0 1 3.157-1.862 3.407 3.407 0 0 1 1.839.522 3.656 3.656 0 0 1 1.726 3.066v.341h1.635v-1.658a3.8 3.8 0 0 0-1.272-3.27 4.944 4.944 0 0 0-2.884-.909 10.767 10.767 0 0 0-1.612.136c-.59.091-1.408.2-2.407.363l-.182-1.862c.886-.227 1.7-.409 2.5-.545a13.132 13.132 0 0 1 2.248-.2 6.285 6.285 0 0 1 3.225.795 5.185 5.185 0 0 1 2.044 2.2 7.45 7.45 0 0 1 .7 3.27v1.658h1.5zm-9.992-1.408a1.6 1.6 0 0 0-.363 1.022v.363h2.521v-.386a1.447 1.447 0 0 0-.363-1.022 1.176 1.176 0 0 0-.908-.409 1.273 1.273 0 0 0-.883.432z" transform="translate(-218.872 -588.027)"/>
            <path id="Path_21737" data-name="Path 21737" class="cls-2" d="M342.851 584v12.149H338.4v-2.112h2.135V584z" transform="translate(-268.183 -581.07)"/>
            <path id="Path_21738" data-name="Path 21738" class="cls-2" d="M370.2 584h2.316v12.149H370.2z" transform="translate(-292.762 -581.07)"/>
            <path id="Path_21739" data-name="Path 21739" class="cls-2" d="M417.887 592.933v2.112h-6.132a7.911 7.911 0 0 1-2.7-.363 2.631 2.631 0 0 1-1.476-1.317 8.275 8.275 0 0 1-.023-5.473 2.557 2.557 0 0 1 1.453-1.294 8.462 8.462 0 0 1 2.816-.363q.988 0 2.316.068a17.188 17.188 0 0 1 1.908.159v6.495h1.839zm-8.2-.886a1.382 1.382 0 0 0 .772.7 4.053 4.053 0 0 0 1.431.182h1.862v-4.519a15.415 15.415 0 0 0-1.817-.091 4.888 4.888 0 0 0-1.476.182 1.317 1.317 0 0 0-.772.659 3.142 3.142 0 0 0-.25 1.385 3.649 3.649 0 0 0 .252 1.502zm.159-9.447h1.794v2.157h-1.794zm2.634 0h1.794v2.157h-1.794z" transform="translate(-321.282 -579.988)"/>
            <path id="Path_21740" data-name="Path 21740" class="cls-2" d="M454.6 628.1h4.337v2.112H454.6z" transform="translate(-357.995 -615.156)"/>
            <path id="Path_21741" data-name="Path 21741" class="cls-2" d="M481.117 605.763v2.112H473.6v-2.112h2.589V599.2h2.316v6.563zm-6 3.5h1.794v2.157h-1.794zm2.634 0h1.794v2.157h-1.794z" transform="translate(-372.681 -592.819)"/>
            <path id="Path_21742" data-name="Path 21742" class="cls-2" d="M511.705 586.061v8.675H506.8v-2.112h2.589v-6.563zm-2.2-3.861h2.135v2.248h-2.14z" transform="translate(-398.341 -579.679)"/>
            <path id="Path_21743" data-name="Path 21743" class="cls-2" d="M542.555 598.181a4.384 4.384 0 0 1 1.635 2.044 8.645 8.645 0 0 1 .591 3.361v2.975H536.9v-2.112h5.564v-.613a4.9 4.9 0 0 0-.84-3.225 2.636 2.636 0 0 0-2.021-.954h-1.749l-.182-1.817c.363-.091.772-.159 1.226-.227a8.775 8.775 0 0 1 1.249-.114 4.378 4.378 0 0 1 2.408.682z" transform="translate(-421.606 -591.505)"/>
            <path id="Path_21744" data-name="Path 21744" class="cls-2" d="M576.8 612.1v-2.09l.59.045a1.012 1.012 0 0 0 .931-.5 2.66 2.66 0 0 0 .318-1.385v-8.97h2.316v8.584a6.2 6.2 0 0 1-.727 3.247 2.388 2.388 0 0 1-2.18 1.158c-.113-.022-.548-.045-1.248-.089z" transform="translate(-452.445 -592.819)"/>
            <path id="Path_21745" data-name="Path 21745" class="cls-2" d="M611.974 574.029v12.149H602.8v-2.112h2.18v-7.676h2.32v7.676h2.362v-10.037zm-3.929.5-3.793.749-.182-.818.795-.2a1.762 1.762 0 0 1-.681-1.408 1.683 1.683 0 0 1 .522-1.226 1.779 1.779 0 0 1 1.317-.522 2.629 2.629 0 0 1 1.363.409l-.227 1.045a.716.716 0 0 0-.3-.159 1.321 1.321 0 0 0-.431-.068.947.947 0 0 0-.659.25.79.79 0 0 0-.25.613.892.892 0 0 0 .409.772l1.885-.5z" transform="translate(-472.54 -571.1)"/>
            <path id="Path_21746" data-name="Path 21746" class="cls-2" d="M654.6 584h2.316v12.149H654.6z" transform="translate(-512.577 -581.07)"/>
            <path id="Path_21747" data-name="Path 21747" class="cls-2" d="M702.287 592.933v2.112h-6.132a7.912 7.912 0 0 1-2.7-.363 2.631 2.631 0 0 1-1.476-1.317 8.275 8.275 0 0 1-.023-5.473 2.557 2.557 0 0 1 1.453-1.294 8.463 8.463 0 0 1 2.816-.363q.988 0 2.316.068a17.192 17.192 0 0 1 1.908.159v6.495h1.839zm-8.2-.886a1.382 1.382 0 0 0 .772.7 4.052 4.052 0 0 0 1.431.182h1.862v-4.519a15.417 15.417 0 0 0-1.817-.091 4.886 4.886 0 0 0-1.476.182 1.317 1.317 0 0 0-.772.659 3.142 3.142 0 0 0-.25 1.385 3.305 3.305 0 0 0 .252 1.502zm.136-9.447h1.794v2.157h-1.794zm2.634 0h1.794v2.157h-1.794z" transform="translate(-541.097 -579.988)"/>
            <path id="Path_21748" data-name="Path 21748" class="cls-2" d="M739 628.1h4.338v2.112H739z" transform="translate(-577.81 -615.156)"/>
            <path id="Path_21749" data-name="Path 21749" class="cls-2" d="M770.354 591.851v2.112H758v-2.112h7.721v-2.135a2.371 2.371 0 0 0-.432-1.476 1.2 1.2 0 0 0-1.022-.568h-4.655l-1.2-1.612 1.045-2.021a10.3 10.3 0 0 1 .931-1.476c.386-.522.772-.977 1.113-1.363l1.726.977a32.528 32.528 0 0 0-1.7 2.793l-.318.613h3.429a2.876 2.876 0 0 1 2.135.749 3.7 3.7 0 0 1 1 1.681 7.054 7.054 0 0 1 .25 1.749v2.112h2.339z" transform="translate(-592.496 -578.906)"/>
            <path id="Path_21750" data-name="Path 21750" class="cls-2" d="M818.768 594.015v2.112H812.5v-2.112h2.135V584h2.294v10.015z" transform="translate(-634.619 -581.07)"/>
            <path id="Path_21751" data-name="Path 21751" class="cls-2" d="M852.885 605.222v2.112h-.954a.814.814 0 0 1-.545-.2 1.2 1.2 0 0 1-.386-.545v.749h-10.9v-2.112h2.7a12.1 12.1 0 0 1-.25-2.2 13.393 13.393 0 0 1 .182-2.044 18.338 18.338 0 0 1 .432-1.885 6.5 6.5 0 0 1 1.385-.409 11.212 11.212 0 0 1 2.044-.182 5.962 5.962 0 0 1 2.748.522 2.653 2.653 0 0 1 1.294 1.476 7.615 7.615 0 0 1 .341 2.5v1.476a1.2 1.2 0 0 0 .386.545.9.9 0 0 0 .545.2zm-7.994-1c.045.409.114.749.159 1h3.633v-2.271a2.778 2.778 0 0 0-.477-1.794 2.313 2.313 0 0 0-1.839-.568 6.477 6.477 0 0 0-1.317.136 13.017 13.017 0 0 0-.25 2.294 11.123 11.123 0 0 0 .092 1.204z" transform="translate(-655.951 -592.278)"/>
            <path id="Path_21752" data-name="Path 21752" class="cls-2" d="M909.285 605.222v2.112h-.954a.814.814 0 0 1-.545-.2 1.2 1.2 0 0 1-.386-.545v.749h-10.9v-2.112h2.7a12.106 12.106 0 0 1-.25-2.2 13.363 13.363 0 0 1 .182-2.044 18.311 18.311 0 0 1 .431-1.885 6.5 6.5 0 0 1 1.385-.409 11.215 11.215 0 0 1 2.044-.182 5.961 5.961 0 0 1 2.748.522 2.653 2.653 0 0 1 1.295 1.476 7.615 7.615 0 0 1 .341 2.5v1.476a1.2 1.2 0 0 0 .386.545.906.906 0 0 0 .545.2zm-8.016-1c.046.409.114.749.159 1h3.634v-2.271a2.778 2.778 0 0 0-.477-1.794 2.313 2.313 0 0 0-1.839-.568 6.481 6.481 0 0 0-1.317.136 13.014 13.014 0 0 0-.25 2.294c.021.386.045.795.09 1.204z" transform="translate(-699.543 -592.278)"/>
            <path id="Path_21753" data-name="Path 21753" class="cls-2" d="M957.251 584v12.149H952.8v-2.112h2.135V584z" transform="translate(-743.058 -581.07)"/>
            <path id="Path_21754" data-name="Path 21754" class="cls-2" d="M984.6 584h2.316v12.149H984.6z" transform="translate(-767.637 -581.07)"/>
        </g>
        <g id="Group_2608" data-name="Group 2608" transform="translate(204.243 147.7)">
            <path id="Path_21755" data-name="Path 21755" class="cls-3" d="M1290.293 375.426a29.108 29.108 0 0 1-5.327.513c-18.916 0-34.367-16.317-34.367-36.2 0-16.108 10.044-29.778 23.906-34.543-7.428 7.38-12.274 18.435-12.274 30.821.016 19.558 12.178 35.955 28.061 39.4z" transform="translate(-1229.678 -279.93)"/>
            <path id="Path_21756" data-name="Path 21756" d="M1479.2 381.736c3.9-4.139 7.926-8.167 11.937-12.178 24.676-8.359 29.3-42.79 2.038-57.358 38.057 15.483 24.243 68.83-13.975 69.536z" transform="translate(-1421.601 -285.807)" style="fill:#00a557;fill-rule:evenodd"/>
            <path id="Path_21757" data-name="Path 21757" class="cls-5" d="M1479.2 361.9c2.792 1.717 5.728 3.417 8.52 5.134 25.671-8.552 28.9-43.159 5.648-53.139 25.879 19.221 3.546 49.047-14.167 48z" transform="translate(-1421.601 -287.234)"/>
            <path id="Path_21758" data-name="Path 21758" class="cls-6" d="m1367.428 370.693 18.419 7.765 18-7.958-.209 27.58-18.387 6.53-17.953-6.723z" transform="translate(-1327.655 -334.753)"/>
            <path id="Path_21759" data-name="Path 21759" class="cls-6" d="m1374.3 362.38 17.231 9.386 16.991-9.466-.112 27.067-17.521 7.958-16.477-7.846z" transform="translate(-1333.532 -327.869)"/>
            <path id="Path_21760" data-name="Path 21760" class="cls-6" d="m1384.9 357.3 15.4 9.947 15.29-9.867v27.275l-15.563 7.958-15-8.038z" transform="translate(-1342.431 -323.671)"/>
            <path id="Path_21761" data-name="Path 21761" class="cls-6" d="m1407.473 387.352-13.573-9.145V350.9l14.087 9.193 13.573-8.888v27.275z" transform="translate(-1349.987 -318.298)"/>
            <path id="Path_21762" data-name="Path 21762" class="cls-5" d="M1424.538 411.636v-.722c.112 0 .112-.112.112-.193.08-.112.08-.193.193-.193v-.112c0-.08-.112-.08-.112-.273 0-.112-.08-.193-.08-.321l-.112-.4v-.786c.112 0 .112 0 .112.08v.3h.08l.112.4v.321a.313.313 0 0 0 .112.193v.465a1.623 1.623 0 0 1-.321.915c.08 0 .193.112.321.112.08.08.08.08.193.08a.414.414 0 0 0 .273-.193c0-.112.112-.193.112-.4v-.193l-.112-.112v-.193a.443.443 0 0 0-.08-.193c0-.08 0-.08-.112-.193v.594h-.08v-1.187l.08-.193v-.193h.112v.273l.08.112v.08l.112.241v.08l.08.321.112.273v.193a3.723 3.723 0 0 1-.193.914c-.112.112-.112.193-.193.321a2.4 2.4 0 0 0-.321.193c-.08-.112-.193-.112-.321-.193a.255.255 0 0 0-.193-.112l.032-.112zm0-7.156v-1.78l.112.481v.321a5.353 5.353 0 0 0 .08.594c0 .193 0 .321.112.4 0 0 .112.112.193.112h.594c.112-.112.112-.112.193-.112h-.385c-.08-.08-.08-.08-.193-.08 0-.112 0-.241.112-.241v-.193l.273-.273a.11.11 0 0 1 .112-.112c.08-.08.08-.08.193-.08v-.112h.273a.11.11 0 0 1 .112.112v.385c0 .08 0 .08-.112.08v-.08h-.08v-.112h-.3s-.08 0-.08.112a.185.185 0 0 0-.193.193h.786l.513-.193v.193l-.193.193a.255.255 0 0 0-.193.112h-.112c-.112.08-.112.08-.193.08l-.112.112-.08.08-.193.193a.255.255 0 0 0-.193.112 1.15 1.15 0 0 1-.513.08c-.08 0-.321-.08-.4-.08a2.187 2.187 0 0 1-.128-.5zm1.62 4.011c.193.4.4.8.513 1.107a4.732 4.732 0 0 1 .08.995v.594c-.08.241-.08.433-.273.513a4.193 4.193 0 0 1-.513.321h-.112v-.1a2.214 2.214 0 0 1 .321-.4c.193-.08.321-.193.321-.4a1.13 1.13 0 0 0 .193-.4v-.112c0-.08 0-.08-.112-.193v-.08c0-.112 0-.193-.08-.193v-.193l-.112-.321a.11.11 0 0 1-.112-.112l-.08.321v.5c-.112 0-.112 0-.112-.112v-1.091a.3.3 0 0 1 .112-.273 1.564 1.564 0 0 1-.032-.369zm-1.62-6.45v2.423a1.229 1.229 0 0 1-.273.4 1.185 1.185 0 0 1-.4.193v-.481s.08 0 .08-.112a.5.5 0 0 0 .321-.08c.08-.112.193-.241.193-.321v-.578a1.59 1.59 0 0 1-.112-.722.842.842 0 0 1-.08-.273l.193-.642c0 .128 0 .128.08.193zm0 6.771v.594a3.1 3.1 0 0 0-.273 1.107v.193l.08.08v.112l.112.193c0-.112 0-.112.08-.112v.642h-.08v-.112c-.112.112-.321.112-.513.193h-.08v-.193a2 2 0 0 1 .4-.321c-.112-.08-.112-.193-.193-.4v-.674a1.285 1.285 0 0 1 .193-.513l.193-.513v-.193zm-.674 4.139v-.241l.193-.08h-.193v-.193h.273v.193c0 .08-.08.08-.08.193-.112.016-.112.128-.193.128zm0-.626v-.08c0-.112.08-.112.193-.193v-.112l.08.112v.193h-.193a.079.079 0 0 1-.08.08zm0-7.733v.481h-.112a.808.808 0 0 1-.4-.08l-.08.08c0 .112 0 .112-.112.112a.11.11 0 0 1-.112-.112v-.4h.112v-.193l-.112-.08v-.433a.4.4 0 0 0 .241.112 2.107 2.107 0 0 1 .08.4c.112 0 .112 0 .112.112h.385zm0 6.931v.193l-.112.112h-.273l.08-.112c.1 0 .176-.08.3-.193zm0 .722v.385h-.112c0-.112-.08-.112-.08-.112.064-.08.064-.193.193-.273zm0 .465v.241h-.112l-.08.08h-.112c0-.08 0-.08.112-.08v-.112h.08zm-.85-1.075v-.513a.11.11 0 0 1 .112-.112v-.08l-.112-.112v-.674h.112c0 .08.112.08.112.193v.08c0 .112.08.193.08.321v.193a.079.079 0 0 0-.08.08.4.4 0 0 1-.112.321.255.255 0 0 1-.112.193v.112zm0-2.022v-.193l.112.08zm0-5.648v.433l-.08-.112a.11.11 0 0 1-.112.112v.08a.255.255 0 0 0 .112.193h.08v.4c-.08 0-.08 0-.193-.08v-.915l.112-.112v-.08c.016 0 .016 0 .08.08zm0 5.439v.193l-.193.193v-.513zm0 .8v.594h-.08v-.385c.016-.08.016-.209.08-.209zm0 .915v.513h-.08l-.112.08v-.512c.128 0 .128-.08.193-.08zm-.193-6.963v.722c-.08-.08-.08-.08-.08-.193-.112 0-.112.112-.193.193l-.321.112c-.08.08-.193.08-.193.193v.08l.112.112.193.273.273.433v.08l.112.112v.273h-.112l-.08-.193v-.08a.11.11 0 0 1-.112-.112c0-.08-.08-.08-.193-.193 0-.08-.08-.08-.08-.193a.11.11 0 0 1-.112-.112 3.72 3.72 0 0 0-.193-.481v-.112a1.272 1.272 0 0 1 .193-.4c0-.08.112-.08.321-.193l.273-.193c.112-.016.112-.128.193-.128zm0 5.134v.513l-.273-.321zm0 1.909h-.658c.08-.08.08-.273.08-.4a.984.984 0 0 0-.08-.4l-.193.513h.08v.08l-.08.112h-.112a.079.079 0 0 1-.08.08h-.112c0-.193.112-.273.112-.4l-.112-.08v-.193l-.193.4v.08c0 .112-.112.112-.112.193h-.193c-.08 0-.192 0-.192-.08v-.385a.079.079 0 0 0-.08.08c0 .112-.112.193-.193.321a.779.779 0 0 1-.4.08h-.4c-.112-.08-.112-.08-.112-.273v-1.3l-.08-.321c0-.273-.112-.481-.112-.674l-.193.481v.112c0 .08 0 .08.08.08v.9l.112.722v.513a.254.254 0 0 0 .193.273h.321a.624.624 0 0 0 .4-.08c.08 0 .193-.112.273-.321v.321c.112 0 .112 0 .112.08h.385c.08-.08.193-.08.193-.193v.193h.3c.08-.08.08-.08.193-.08l.08.08h.786v-.513zm-4.893 1.235v-.513c.08 0 .193 0 .193-.08a.3.3 0 0 0 .273-.112.96.96 0 0 0 .4-.4v-.193c-.08 0-.08-.112-.08-.112l-.112-.08a.444.444 0 0 1-.08-.193h-.112v-.112l.321-.481.08.193v.08l.112.112c0 .08.08.08.08.193v.578a.3.3 0 0 1-.08.193c0 .112 0 .193-.112.193a.968.968 0 0 1-.4.513.725.725 0 0 1-.4.193h-.08zm0-1.235.08.112.193-.4-.273-.112zm0-.4v.4l-.321-.193.321-.273zm0 1.123a.971.971 0 0 1-.514-.193c0-.08-.112-.193-.112-.273a.527.527 0 0 1-.08-.321v-.112a.363.363 0 0 1 .08-.273c0-.112.112-.193.193-.321l.241-.273s0-.112.08-.112v-.385l-.08.112c0 .08-.112.193-.112.273-.193.321-.4.513-.513.722a1.517 1.517 0 0 0-.08.594c0 .112 0 .321.08.4.112.321.321.4.4.513.241.08.321.193.433.193v-.546zm-10.91.594v-.193h.112l.193-.193.321.193-.193.321-.321-.193zm0-.8v-.516c.241-.08.321-.08.321-.193v-.273h-.08v.08h-.112v-.273l.112-.112v-.273l.08-.112v.112h.112a.364.364 0 0 0 .08.273v.594a.37.37 0 0 0-.08.193c0 .112-.112.241-.112.321-.08-.016-.208.1-.321.177zm0-7.124v-.834h.225a.3.3 0 0 1 .193-.08h.08c-.08.08-.08.193-.08.4v.08a.37.37 0 0 0-.112.241h-.08l-.112.08zm-2.984-1.027h.385v-.08h.08v.08c-.08.321-.08.513-.193.594 0 0 0 .112-.08.112 0 .112-.112.112-.112.193-.08.112-.193.112-.273.193h-.112l-.193.112h-.4l-.112.08v-.481h.112l.193-.112h.192a.713.713 0 0 1 .4-.112l-.08-.08v-.385c0-.112 0-.193.08-.193l.112-.321v-.594a.408.408 0 0 1-.193-.321l-.112.241v.594h-.112v-1.091c0-.112 0-.193.112-.193v-.321l.112-.08v.08l.08.112v.08c0 .112 0 .112.112.112l.193.4a.551.551 0 0 0 .08.321v.273c0 .112-.08.193-.08.4a.671.671 0 0 0-.193.385zm-1.043 1.909.321.321v.112c.08.08.08.08.08.193l.112.08a.3.3 0 0 0 .08.193v.193h-.08v-.08l-.193-.321-.193-.193-.112-.08v-.417zm4.027-1.717v.834l-.08.193-.112.08a1.38 1.38 0 0 1-.481.193h-.112a.363.363 0 0 1-.273-.08c-.112 0-.193-.112-.193-.321v-1.7a.3.3 0 0 0-.112-.273v-.112l-.08-.08.193-.513a4.256 4.256 0 0 0 .193.594v1.685a.3.3 0 0 0 .08.193.11.11 0 0 0 .112.112h.385l.08-.112s.112 0 .112-.08h.08v-.112h-.08l.08-.513h.209zm0 7.445v.513h-.578a.364.364 0 0 1-.273-.08.508.508 0 0 1-.193-.433c-.112.112-.112.241-.193.241v.08c-.112 0-.112 0-.112.112h-.08a.835.835 0 0 1-.433.08.624.624 0 0 1-.4-.08.611.611 0 0 1-.193-.433c-.08.112-.192.321-.273.433a.99.99 0 0 1-.513.08.5.5 0 0 1-.321-.08.079.079 0 0 0-.08.08l-.112.112h-.193v-.513l.112.112h.08c0-.112-.08-.241-.08-.321l-.112-.112v-.4c.112 0 .112.112.193.193.112.112.112.193.193.321 0 .08 0 .08.112.08h.385c.112 0 .193-.08.321-.08.193-.112.193-.193.193-.4v-.578c0-.193-.112-.4-.112-.642 0-.193-.08-.273-.08-.4l.273-.481a2.559 2.559 0 0 0 .112.8v.4c0 .112.08.321.08.4v.594c0 .112 0 .321.112.321 0 .08.08.08.193.08h.5l.08-.08.112-.112-.112-.08h-.193v-.129l.112-.193v-.193h.273a.5.5 0 0 0 .321-.08h.193v.08c0 .112-.112.193-.112.321 0 .08 0 .193-.08.193v.08c0 .112 0 .112.08.193h.8zm0 1.123v.193l-.08.112-.4-.193.273-.321zm-4.027-7.445h-.08v.193a.5.5 0 0 0 .08.321v.4a.6.6 0 0 1-.193-.4c-.08-.112-.08-.193-.08-.4 0-.112.08-.193.08-.4.112-.112.193-.112.193-.193zm0 5.728v.4c-.08 0-.08 0-.08.112v.193h.08v.513c0-.112-.08-.112-.08-.112-.112-.193-.192-.273-.192-.4 0 .112-.112.112-.193.193l-.321.193c-.08 0-.08.112-.193.112l.112.08v.112l.193.273.273.4.112.112v.193l.08.112v.193h-.08v-.112l-.112-.193a.079.079 0 0 1-.08-.08l-.112-.112a.443.443 0 0 1-.08-.193c-.112 0-.112-.112-.193-.112 0-.08-.112-.08-.112-.193 0-.08-.112-.273-.112-.4v-.192a.742.742 0 0 1 .112-.4c.112 0 .193-.112.321-.193l.4-.193c.08 0 .193-.112.193-.112v-.193z" transform="translate(-1356.703 -360.696)"/>
            <path id="Path_21763" data-name="Path 21763" class="cls-5" d="M1466.252 173.556a2.928 2.928 0 1 0-2.952-2.952 2.934 2.934 0 0 0 2.952 2.952z" transform="translate(-1408.252 -164.491)"/>
            <path id="Path_21764" data-name="Path 21764" class="cls-5" d="M1471.5 201h3.225l-1.187 64.129h-1.123z" transform="translate(-1415.137 -192.448)"/>
            <path id="Path_21765" data-name="Path 21765" class="cls-5" d="M1434.948 256.61c8.76 3.947 9.948 9.081 0 15.8-12.386 6.963-6.642 15.082-2.31 19.943.594.481 1.316.995 1.909 1.4 7.525 3.626-4.621 8.471-9.947 12.9 10.557-4.22 17.985-8.872 9.947-15.531-4.541-5.535-6.257-10.349-1.508-13.461 19.221-9.161 12.771-21.531 2.038-23.36a14.334 14.334 0 0 1-.128 2.31z" transform="translate(-1375.761 -237.197)"/>
            <path id="Path_21766" data-name="Path 21766" class="cls-3" d="M1479.2 634.1v-21.158a.071.071 0 0 1 .1-.064l13.557 7.589-13.605 13.654c-.02.032-.052.016-.052-.021z" transform="translate(-1421.601 -538.24)"/>
            <path id="Path_21767" data-name="Path 21767" d="m1498.83 655.015 1.107-.915-.193 1.3 1.4.289-1.123.722.722 1.3-1.316-.513-.594 1.316-.4-1.187-1.428.385.706-1.235-1.107-.786 1.316-.209-.08-1.38z" transform="translate(-1436.21 -572.852)" style="fill-rule:evenodd;fill:#fff"/>
            <path id="Path_21768" data-name="Path 21768" d="M1179.516 147.7a59.332 59.332 0 0 1 0 118.663v-2.984a56.388 56.388 0 0 0 0-112.775zm0 118.663a59.332 59.332 0 0 1 0-118.663v2.9a56.388 56.388 0 0 0 0 112.775v2.984z" transform="translate(-1120.2 -147.7)" style="fill:none;fill-rule:evenodd"/>
            <path id="Path_21769" data-name="Path 21769" class="cls-5" d="M1403.418 843.093h-.53l-.08-.112h-.321l-.08-.08h-.3l-.08.08h-.208l-.112.112-.08.08-.241.128-.08.112v.273l.08.128v.193l.112.08.128.128.08.08.112.112h.08l.128.08.08.112.112.08h.08l.193.128h.209l.193-.128.209-.08h.241l.193-.112.193.112.289.209.321.193h.08l.112.128.193-.128h.08l.128-.112h.112l.08-.08.128-.128v-.866l-.128-.128v-.08l-.08-.112v-.08l-.112-.112h-.128l-.08-.128-.112-.08h-1.187z" transform="translate(-1356.2 -731.36)"/>
            <path id="Path_21770" data-name="Path 21770" class="cls-5" d="m1441.773 834.016.209.112.112.209h.209l.193.08h.722l.08-.08h.112l.08-.128.112-.08v-.594l-.112-.112-.08-.209-.193-.08-.128-.112-.193-.08-.08-.112-.209-.128h-.513l-.112.128-.209.112h-.08v.08l-.112.112-.08.08v.321l.08.08v.128l.112.193z" transform="translate(-1389.95 -722.797)"/>
            <path id="Path_21771" data-name="Path 21771" class="cls-5" d="M1391.713 756.222v-.08l.128-.112v-.08l-.128-.128v-.112l-.08-.08h-.112l-.08-.128h-.193l-.128.128h-.112l-.08.08-.128.112-.08.128-.112.08-.08.112-.128.08-.08.193-.112.128-.08.08-.112.112v.08l-.08.128v.08l-1.829 3.738-.209.193-.08.209-.193.193-.241.128-.209.08-.193.193v.112l-.08.08v.128l.08.08.128.112h.064l.128.08.08-.08h.241l.08-.112h.192l.128-.08.08-.128.112-.08.08-.112h.193l.128-.08.08-.112.112-.08.08-.209.128-.112.08-.128.112-.08.08-.112.112-.08z" transform="translate(-1344.11 -657.983)"/>
            <path id="Path_21772" data-name="Path 21772" class="cls-5" d="M1552.115 787.2h.193l.208-.08h.112l.08-.112.112-.08.208-.128.08-.08.113-.112.08-.08.128-.112v-.08l.112-.128v-.08l.08-.241v-.594l-.08-.08-.112-.112h-.4l-.128.193-.08.128v.064l-.112.128-.08.08-.112.112h-.208l-.08.08-.112.128h-.208l-.08.112h-.112l-.208.08h-.193l-.112.128v.465l.112.128.08.08.112.112.08.08h.128l.112.128h.08z" transform="translate(-1482.049 -682.834)"/>
            <path id="Path_21773" data-name="Path 21773" class="cls-5" d="M1291.152 762.982v-.08l.112-.112v-.08l.08-.128v-1.107l-.08-.08v-.209l-.112-.193-.193-.128-.209-.064h-.193l-.128.064h-.08l-.112.128-.08.08-.112.112v.209l-.08.08v.706l-.128.209v.706l-.08.08-.112.128-.208.08-.193.112h-1.508l-.209-.112h-.273l-.241-.08h-.08l-.193-.128-.208-.08h-.112l-.209-.112-.193-.08-.193-.112-.208-.08-.193-.209-.209-.193-.193-.128-.209-.193-.3-.112-.08-.08h-.321l-.08.08-.128.112v.08l.128.241v.193l.08.08.112.209.08.112.128.193.08.08.112.128.193.193.08.08.128.128.08.08.112.112.08.112h.128v.08l.112.128.08.08.208.112h.112l.08.08.112.128h.08l.128.08h.193l.208.112h.706l.209-.112h.674l.193-.08h.321l.193-.128h.208l.321-.08.193-.112.209-.08.193-.128.193-.08.208-.225.112-.08.209-.209.08-.193.193-.209z" transform="translate(-1257.635 -662.433)"/>
            <path id="Path_21774" data-name="Path 21774" class="cls-5" d="M1683.2 571.109h.112l.08.128v.193l-.4 2.631v.481l-.08.112v.193l.08.208v.915l.128.193v.289l.08.193v.241l.112.08v.193l.08.209v.112l.128.08v.128l.112.08v.112l.08.08h.112v.112l.08.08h.128l.08.128h.594l.128-.128h.064l.128-.08.08-.112.722-.995.112-.08h.08l.112.08v.112l-.594 4.3-.241.4-.08.513-.193.4-.128.4-.064.513-.209.4-.193.4-.128.513-.193.4-.209.4-.193.4-.193.385-.321.4-.208.433-.193.4-.273.4-.209.4-.321.4-.193.321-.321.385-.273.4-.209.4-.321.4-.064.112-.128.08-.193.128-.08.193-.241.08-.08.193-.208.128-.193.193-.193.08-.208.209-.193.112-.209.08-.193.112-.241.128-.193.08h-.4l-.209.112-.193-.112h-.193l-5.936-2.31h-.321l-.08.08h-.112l-.08.112-.128.209v.193l.128.128.273.273.209.193 4.524 1.636.321.209.289.193.112.08v.193l-.112.321-.08.209-.209.112-.193.08h-.128l-.08-.08-.193-.193-.112-.128-.08-.112h-.529l-.112.112v.513l.112.209v.273l-.112-.08h-.193l-.08-.112h-.321l-.08.112h-.128l-.08.209v.513l.08.08v.193l.128.209v.112l-.128.289-.08.193-.112.112-.209.209-.064.08h-.128l-.112.112h-.69l-.112-.112h-.08l-.112-.08h-.08l-.128-.128h-.594l-.112.128-.08.08v.433l.08.193.112.08.112.209.08.112.209.08.193.128.128.08.193.112.193.08.209.112.193.08.08.128.209.08.112.241.128.08.064.193v.513l-.064.209-.128.193v.08l-.112.209-.08.193-.209.241-.112.08-.209.193-.08.209-.193.112-.193.193-.128.08-.193.128-.209.08-.193.112h-.594l-.208-.112h-.193l-.193-.08-.129-.209-.193-.112v-.193l-.128-.08-.08-.208-.112-.193-.08-.241-.128-.08-.08-.112-.112-.08h-.193l-.08.08v.112l-.128.193.128.209v.321l.08.273.112.193.08.321.112.209.209.193.192.321.209.193.193.08.209.209.193.112.193.08h1.123l.193-.193.321-.08.273-.209.209-.193.193-.128.321-.193.193-.193.209-.209.193-.193.128-.128.08-.193.112-.08.08-.193.128-.128v-.193l.08-.08.112-.241v-.193l.08-.08v-.995l-.08-.209v-.193l-.112-.241v-.594l.112-.209.513-.786.594-.8.08-.193.128-.128.193-.08.08-.112.128-.08.08-.128.193-.08.112-.112.08-.08.128-.241.112-.08.08-.112.128-.08.08-.128.112-.193.08-.08.128-.128v-.193l.064-.193v-.08l.128-.241h.193l.289-.08.433-.128.4-.08.273-.112.321-.08.273-.193.321-.128.321-.193.273-.209.209-.193.321-.321.193-.193.209-.209.273-.273.241-.321.193-.273.209-.209.193-.321.193-.3.209-.289.273-.513.321-.4.321-.513.4-.481.193-.4.273-.513.321-.594.209-.513.321-.481.193-.642.193-.594.209-.594.193-.529.209-.594.08-.594.193-.594.112-.594.08-.61.128-.626.112-.61.08-.594v-.594l.128-.594v-.642l.08-.594v-.674l.112-.209v-.513l.08-.193v-.321l.112-.209.08-.193v-.273l.128-.209.08-.241v-.273l.112-.209.08-.193.128-.193.08-.321.112-.209.128-.193v-.722l-.128-.08-.112-.112-.08-.08-.128-.112-.08-.08-.193-.128h-.321l-.08.128-.193.08v.112l-2.824 5.407h-.4l-.128-.08v-1.62l.128-.209v-.594l.08-.193v-.4l.112-.128v-.193l.08-.08.128-.193v-.128l.064-.193.128-.08v-.128l.193-.193.209-.193.193-.128.128-.193.193-.08.193-.209.209-.193v-.321l-.128-.193-.08-.209-.112-.08-.08-.112h-.722l-.112.112-.08.08h-.128l-.193.128h-.08l-.112.08h-.08l-.209.112h-.193l-3.353-.321h-.193l-.08-.08h-.112l-.08-.112-.128-.128-.112-.08h-.08l-.128-.112h-.465l-.128.112h-.193l-.08.08h-.128l-.08.128h-.112v.112h-.08l-.112.08v.209h-.128v.112l.128.08v.128l.112.193.08.08.193.112.128.08h.273z" transform="translate(-1580.529 -501.574)"/>
            <path id="Path_21775" data-name="Path 21775" class="cls-5" d="m1630.434 733.893-.128-.112h-.08l-.112-.08h-.321v.08l-.08.112v.128l-.112.08v.4l.112.112v.08l.08.208v.112l.128.08.112.193v.128l.08.08.112.112.08.209.128.112v.08l.08.112.594.882.722.834.594.882.193.193.208.321.112.193.208.321.064.289.209.193.112.321.209.193.192.08.128.128v.08l.08-.08h.112l.08-.128.112-.08v-.4l-.112-.112v-.193l-.08-.289-.112-.193-.08-.241-.209-.273-.112-.209-.08-.193-.128-.128-.112-.193z" transform="translate(-1547.87 -639.681)"/>
            <path id="Path_21776" data-name="Path 21776" class="cls-5" d="m1269.622 738.654.08.08.128.112h.706l.209-.112h.08l.112-.08h.08l.192-.128.209-.112.112-.08.208-.128.112-.08.208-.112.08-.08.193-.193.112-.128.08-.193.128-.08.08-.209.112-.112.08-.193.128-.209.08-.193v-.124l.112-.193v-.8h-.112l-.08-.08v-.112h-.128l-.08-.08h-.192l-.128-.128h-.385l-.08.128h-.208l-.112.08-.128.112-.08.08v.128l-.112.08.112.193v.722l-.112.08v.112l-.08.08v.241l-.128.08-.08.112v.08l-.112.209-.193.112h-.208l-.08-.112h-.112l-.08-.08h-.209l-.112-.128-.112-.08v-.112l-.08-.08-.128-.112-.08-.128-.112-.08-.08-.112v-.08l-.128-.209-.08-.112h-.112l-.08-.08-.112-.112-.08-.08h-.61l-.112.08h-.128l-.08.112-.112.08-.08.112-.112.08v.4l.112.128v.112l.08.08z" transform="translate(-1243.951 -640.688)"/>
            <path id="Path_21777" data-name="Path 21777" class="cls-5" d="m1183.917 553.529-.08-.289v-.706l.08-.321v-1.2l.112-.3v-.61l.128-.273v-.914l.08-.193v-.321l.112-.289.08-.193v-.321l-.08-.112-.112-.08h-.53l-.08.08v.112h-.112l-.08.08-.112.128v.112l-.08.193-.128.08v.128l-.08.08v.112l-.112.08v.128l-.08.08v.112l-.128.193-.08.289-.112.321v.3l-.08.289v.193l-.112.321v.722l-.128.273v.914l.128.289v.915l.112.3v.481l.193.834.08.69.209.834.112.674.209.706.193.722.193.674.209.642.193.674.209.722.321.594.193.722.273.594.321.722.289.674.3.626.4.69.321.626.4.69.4.706.08.209.112.193.112.193.209.209.08.193.193.209.128.193.193.321.08.08.193.321.128.112.193.289.08.112.241.273.08.128.208.273.112.209.193.193.08.241.128.193.08.08.193.209.128.193.193.321.193.193.209.289.193.193.321.321.193.193.289.321.321.289.193.3.321.208.193.193.289.321.193.193.208.209.193.08.193.193.209.128h.112l.208.08h.112l.193.112h1.075l.241-.112h.08l.209-.08.112-.128.08-.08.128-.112.08-.08.112-.128v-.193l.08-.193.112-.08h.289l.112-.128h.513l.209-.112h.08l.193-.08h.128l.08-.128.193-.08h.112l.08-.112.128-.08.08-.112.112-.08.08-.128.128-.193.112-.08v-.209l.08-.112v-.321l-.08-.08-.241-.112-.193-.08h-.289l-.112.08h-.08l-.112.112h-.08l-.128.08h-.08v.112l-.112.128-.08.08-.128.112v.08l-.08.128-.112.08v.112l-.112.08H1198l-.193-.08h-.208l-.08-.112-.112-.08-.08-.209-.193-.112-.128-.08-.08-.128-.112-.112-.209-.08-.193-.112h-.594l-.128.112h-.08l-.112.08v.241l-.08.08v.321l.08.08v.4l.112.193v.513h-.4l-.193-.193-.193-.128-.321-.193-.208-.193-.3-.209-.208-.273-.273-.321-.209-.209-.3-.3-.209-.289-.321-.321-.193-.385-.209-.289-.273-.321-.193-.3-.209-.289-.193-.193-.241-.321-.193-.193-.08-.209-.61-.722-.513-.786-.513-.722-.481-.786-.4-.8-.513-.8-.4-.914-.4-.786-.385-.914-.4-.931-.321-.915-.321-.866-.273-.915-.321-.8-.209-.915-.193-.914-.193-.914-.08-.882-.128-.914-.112-.786z" transform="translate(-1172.253 -483.271)"/>
            <path id="Path_21778" data-name="Path 21778" class="cls-5" d="m1289.32 690.6-.112-.289v-.241l-.08-.08-.112-.112h-.08l-.128-.08h-.722l-.08.08h-.112l-.08.112v.08l-.112.128v.594l.112.112.08.08.112.128.08.08.128.112h.193l.08.08h.241l.08-.08h.128l.08-.112.112-.08.08-.128v-.193z" transform="translate(-1260.826 -602.824)"/>
            <path id="Path_21779" data-name="Path 21779" class="cls-5" d="M1192.024 662.784v-.8l-.08-.08-.241-.193-.193-.128-.289-.08-.193-.112-.128-.128v-.063l-.08-.128v-.481l-.112-.321-.08-.193-.128-.08-.193-.112-.193-.08h-.209l-.112.08h-.08l-.209.112-.112.193v.08l-.08.128v.193l-.112.209v.273l.112.193.08.128v.193l.193.128.128.08.193.193h.209l.193.128v.08l.128.112v.995l.064.112.128.08.08.128h.112l.08.08h.4l.128-.08h.08l.112-.128.08-.08.112-.112v-.112h.128v-.08z" transform="translate(-1178.13 -577.637)"/>
            <path id="Path_21780" data-name="Path 21780" class="cls-5" d="M1796.966 608.536h.128l.08-.128h.112v-.108h.08l.112-.08h.08v-.12h.128l.08-.08v-.209h.112v-.511l-.112-.08-.08-.112-.321-.209h-.674l-.128.128-.193.193-.08.08-.112.112v.209l-.08.08v.513l.08.08v.112l.193.128h.112l.209.08.193-.08z" transform="translate(-1687.657 -533.225)"/>
            <path id="Path_21781" data-name="Path 21781" class="cls-5" d="M1747.765 549.922h.193l.112-.112v-.21l-.112-.08-1.508-.706-.209-.08-.273-.128h-.321l-.321-.08h-.273l-.128-.112h-.064l-.209-.08h-.193l-.321-.112h-.481l-.321-.128h-.321l-.385-.08h-.61l-.3-.112h-1.284l-.112.112-.208.08-.112.128v.193l.241.193.08.209.321.112.193.08z" transform="translate(-1640.558 -483.691)"/>
            <path id="Path_21782" data-name="Path 21782" class="cls-5" d="m1339.963 742.45.192-.193.193-.193.112-.193.193-.193.08-.193.241-.193.08-.193.112-.193.193-.193.08-.193.112-.193.193-.193.08-.321.193-.193.112-.321.08-.08.112-.112.08-.08h.112l.193-.112.112-.08h.08l.112-.112h.08l.113-.08.08-.193.112-.112v-.385l-.112-.193-.08-.193v-.786l-.113-.193-.08-.112h-.385l-.112.112-.192.08-.193.112-.193.08h-.5l-.08-.08v-.112l-.112-.08v-.626l-.08-.08-.112-.193-.08-.112-.112-.08-.193-.112h-.112l-.192-.08h-.273l-.112.08v2.118l.193.112.513.08.4.112.192.08.112.112v.193l-.112.193-.08.193-.112.321-.193.4-.193.4-.112.273-.192.433-.08.193-.112.193-.193.193v1.46zm-1.6-7.653v-.273l-.112-.112-.08-.112h-.69l-.193.112-.112.112-.193.08-.08.112-.192.08-.112.193-.08.112-.112.193-.08.08v1.011l.08.08v.193l.112.112v.08l.08.112.112.193v.08l.08.112.112.08v.112l.08.08.112.112v.08l.08.241v.08l.112.112v.273l.08.193v1.69l-.08.193v.786l-.112.241v.38l-.08.193v.193l-.112.08-.08.193-.192.112-.112.08h-.273l-.112.112h-1.46l-.193.08h-.465l-.112.112h-.112l-.08.112h-.112v.08h-.08v.112l-.112.08v.112h-.08v.465l.08.112.112.08v.112h.08l.112.08 2.711 1.316.193.112h.112l.192-.112h.08l.112-.193.08-.08.193-.193.112-.112.112-.193.08-.193.113-.321.08-.193.192-.193.112-.193.08-.193.112-.193.08-.08.112-.193.08-.112.112-.112.273-.08.241-.193.273-.193.193-.193.192-.112v-1.589l-1.107 1.316h-.273v-.112l.192-4.412v-.193l.08-.112h1.107v-2.118h-.192l-.193.112-.08.08-.112.112-.08.193-.112.08v.385l-.112.241v.08l-.08.112h-.192l-.112-.112h-.08v-.08z" transform="translate(-1299.194 -640.185)"/>
            <path id="Path_21783" data-name="Path 21783" class="cls-5" d="M1424.827 754.743h.112l.193-.112.193-.112.273-.193.193-.08.193-.112.193-.08.321-.112.321-.193.193-.08.273-.193.321-.112.273-.193.321-.193.193-.08.321-.241.193-.193.273-.193.193-.193.193-.193.112-.193.193-.193.112-.273v-.626l.08-.193-.08-.321v-.273l-.112-.321v-.192l-.112-.321-.193-.193-.08-.273-.112-.193-.193-.321-.193-.193-.08-.321-.193-.193-.193-.193-.192-.273-.241-.193-.08-.193-.193-.193-.193-.193-.112-.193v-.241l-.08-.08.08-.193v-.882l-.08-.08-.112-.112-.08-.08h-.112l-.08-.112h-.112l-.08-.112h-.112l-.08-.08h-.112l-.112-.112h-.08l-.112-.08-.08-.112-.112-.08-.193-.112h-.193l-.08.112-.112.08v.706l.112.321.08.273.193.4.112.321.193.321.273.4.241.273.193.321.273.4.193.273.321.321.193.4.273.321.241.273.193.321.193.193.193.321.193.193v.193l.08.08-.08.112v.193l-.112.193-.08.08h-.112l-.08.193h-.112l-.08.112-.112.112-.08.08-.112.112h-.112l-.08.08-.112.112h-.08l-.112.08h-.193l-.08.112h-.112l-.08-.112v-.193l-.112-.08v-.193l-.08-.112-.112-.112-.08-.08-.112-.112-.08-.08-.241-.112-.08-.08H1426l-.112-.112h-.465l-.193.112h-.3v1.508h.112l.193-.112h.465l.112.112.08.08v.3l-.08.08-.915.513v1.733zm-28.19-.321h.385l.112.08.08.241.4.882.112.112.08.08.112.112.08.08.112.112.08.112.241.08.08.112.193.08.112.112.193.08.193.112.08.08.192.112.193.08h.112l.193.112.112.08h.08l.193.112.321.08.4.112.481.08.433.112.4.112.481.08.513.112h.513l.481.08h.513l.513.112h4.492l.321-.112h.722l.273-.08h.722l.273-.112h.321l.4-.08h.321l.273-.112h.321l.4-.112.321-.08h.273l.321-.112h.273l.433-.08.273-.112.513-.08.4-.112.513-.08.481-.193.4-.112.514-.08.513-.112h.273l.193-.193.321-.08.273-.112.321-.112.193-.08h.321l.193-.112.193-.08.273-.112h.193l.193-.08.321-.112h.193l.193-.08.321-.112.193-.08.193-.112.193-.08h.273l.193-.112.112-.08v-1.829l-.8.513h-.193l-.112-.112v-.193l.722-.915.08-.08.112-.112.193-.08v-1.427h-.193l-.112.112-.08.08h-.192l-.112.112-.08.08-.112.112v.112l-.08.193-.112.08-.08.112-.112.08-.08.112-.112.08V752l-.08.112-.112.08-.112.112-.08.08-.112.112-.08.08-.112.112-.193.112h-.08l-.112-.112v-.369l-.08-.193v-.193l-.112-.193-.08-.193v-.193l-.112-.112-.08-.193-.112-.193-.08-.193-.112-.112-.08-.193-.112-.193-.112-.193-.08-.08-.112-.193-.08-.193-.112-.241-.08-.08-.112-.193v-.193l-.08-.321v-.9l-.112-.193-.193-.08-.08-.112-.193-.193-.112-.08-.193-.193-.193-.112-.112-.08h-.465l-.112.08-.08.112-.112.193v.578l.112.08.08.241v.08l.112.112.08.08v.193l.112.112v.08l.08.193.193.193.112.321.193.321.112.193.193.273.193.321.193.273.192.321.08.321.193.273.193.321.112.273.08.321.112.273v.241l.112.273-.112.321v.193l-.112.273-.08.112-.193.193-.193.193-.321.08-.193.241-.273.08-.433.112-.273.193-.4.08-.4.112-.4.08-.433.112-.4.08-.273.112-.4.08H1416l-.4.112-.321.08h-.385l-.594.112-.594.193-.722.112-.594.08-.4.112h-.513l-.4.08h-.915l-.481.112h-2.744l-.481-.112h-.915l-.513-.08h-.4l-.481-.112h-.4l-.513-.08h-.193l-.193-.112h-.321l-.192-.08h-.273l-.241-.112h-.273l-.193-.112h-.193l-.321-.08-.193-.112h-.193l-.273-.08-.241-.112-.193-.08-.193-.112-.193-.08-.193-.193-.193-.112-.193-.192-.08-.08-.112-.112-.08-.112v-.193l-.112-.08v-.385l-.112-.112v-.194l-.08-.08-.112-.112-.193-.08-.193-.112h-.577l-.273.112-.241.08h-.273l-.321.112-.193.193-.273.08-.321.112-.193.193-.193.193-.321.08-.08.193-.192.241-.193.193-.112.193v.193l-.08.193v.193l.08.08v.112l.112.08v.112l.08.112.112.08.08.112.112.08v.112h.08l.112.08.08.112h.193l.112.08.112.112h.08l.112.08.08.193.112.112-.112.08h-2.278l-.321-.08h-.273l-.321-.112-.273-.08-.321-.112-.193-.08-.193-.112-.193-.08-.193-.193-.112-.193-.08-.193v-.257l-.112-.193.112-.08v-.193l.08-.112.112-.08.08-.112v-.193l.112-.08.08-.193.112-.112v-.112l-.112-.08h-.273l-.193.08-.193.112-.193.193-.112.193-.193.193-.193.193-.112.192-.08.193-.112.112-.08.193v.77l.08.193v.112l.112.193.08.08.112.112.112.193.193.112.08.08.112.112.193.08.193.112.08.08.321.112.193.08.273.112.241.08h.273l.321.112h.465l.321.08h.786l.321-.08h.594l.193-.112h.321l.273-.08h.192l.321-.112.08-.08h.193l.112-.112.08-.08.112-.112.193-.08.112-.112v-.08l.08-.112.112-.193v-.112l.08-.08v-.337l-.08-.193v-.112l-.112-.08-.08-.112-.112-.193-.4-.193-.321-.193-.273-.193-.4-.193-.112-.112-.08-.08v-.193l.08-.193v-.112h.112z" transform="translate(-1346.21 -647.824)"/>
        </g>
    </g>
</svg>
